<svg xmlns="http://www.w3.org/2000/svg" width="411" height="160" fill="none"><path fill="url(#a)" d="M0 0h411v160H0z"/><path fill="#2E2E2E" fill-opacity=".9" d="M61.264 72.454h3.793l4.005 9.773h.171l4.006-9.773h3.792V87h-2.983v-9.467h-.12l-3.765 9.396h-2.03l-3.765-9.432h-.12V87h-2.984V72.454ZM79.508 87V76.09h3.026V87h-3.026Zm1.52-12.315c-.45 0-.836-.15-1.158-.448a1.45 1.45 0 0 1-.476-1.086c0-.417.16-.775.476-1.073a1.63 1.63 0 0 1 1.158-.454c.45 0 .833.151 1.15.454.323.298.484.656.484 1.073 0 .421-.161.783-.483 1.086-.318.299-.701.448-1.15.448Zm8.858 12.528c-1.117 0-2.078-.237-2.883-.71a4.802 4.802 0 0 1-1.847-1.989c-.426-.847-.639-1.823-.639-2.926 0-1.117.216-2.097.646-2.94a4.802 4.802 0 0 1 1.854-1.982c.8-.478 1.752-.717 2.855-.717.952 0 1.785.173 2.5.518a4.18 4.18 0 0 1 1.698 1.456c.416.625.646 1.36.689 2.202h-2.856c-.08-.544-.293-.983-.639-1.314-.34-.336-.788-.504-1.342-.504-.469 0-.878.128-1.229.383-.346.251-.615.618-.81 1.101-.194.483-.29 1.068-.29 1.755 0 .695.094 1.287.283 1.775.194.488.467.86.817 1.115.35.256.76.384 1.229.384.346 0 .656-.071.93-.213.28-.142.51-.349.69-.618.184-.275.305-.604.361-.988h2.855c-.047.834-.274 1.568-.681 2.202a4.118 4.118 0 0 1-1.67 1.477c-.71.355-1.55.533-2.52.533Zm6.81-.213V76.09h2.933v1.904h.114c.198-.677.532-1.188 1.001-1.534a2.631 2.631 0 0 1 1.619-.525 4.55 4.55 0 0 1 .952.106v2.685a3.954 3.954 0 0 0-.59-.114c-.25-.033-.48-.05-.688-.05-.445 0-.843.098-1.194.292-.345.19-.62.454-.823.795-.2.341-.299.734-.299 1.18V87h-3.025Zm12.604.213c-1.103 0-2.057-.234-2.862-.703a4.807 4.807 0 0 1-1.853-1.975c-.436-.847-.654-1.83-.654-2.947 0-1.127.218-2.112.654-2.954a4.75 4.75 0 0 1 1.853-1.975c.805-.473 1.759-.71 2.862-.71 1.104 0 2.055.237 2.856.71a4.741 4.741 0 0 1 1.86 1.974c.436.843.654 1.828.654 2.955 0 1.118-.218 2.1-.654 2.948a4.797 4.797 0 0 1-1.86 1.974c-.801.469-1.752.703-2.856.703Zm.015-2.344c.502 0 .921-.142 1.257-.426.336-.289.589-.682.76-1.179.175-.497.262-1.063.262-1.697 0-.635-.087-1.2-.262-1.698-.171-.497-.424-.89-.76-1.179-.336-.288-.755-.433-1.257-.433-.507 0-.933.144-1.279.433-.341.29-.599.682-.774 1.18-.17.496-.256 1.062-.256 1.697 0 .634.086 1.2.256 1.697.175.497.433.89.774 1.18.346.283.772.425 1.279.425Zm16.399-5.667-2.77.17a1.42 1.42 0 0 0-.306-.639 1.62 1.62 0 0 0-.617-.462 2.1 2.1 0 0 0-.902-.177c-.469 0-.865.1-1.186.298-.322.194-.483.455-.483.781 0 .26.104.48.312.66.208.18.566.325 1.073.434l1.974.398c1.061.218 1.851.568 2.372 1.05.521.484.781 1.118.781 1.904 0 .715-.21 1.343-.632 1.882-.416.54-.989.962-1.718 1.265-.725.298-1.561.447-2.508.447-1.444 0-2.594-.3-3.451-.902-.853-.606-1.352-1.43-1.499-2.472l2.976-.156c.09.44.308.777.653 1.009.346.227.789.34 1.329.34.53 0 .956-.101 1.278-.305.327-.208.492-.476.497-.802a.836.836 0 0 0-.348-.675c-.227-.18-.578-.317-1.051-.412l-1.889-.376c-1.066-.213-1.859-.583-2.38-1.108-.516-.526-.774-1.196-.774-2.01 0-.701.19-1.305.568-1.811.384-.507.921-.898 1.613-1.172.696-.275 1.51-.412 2.443-.412 1.378 0 2.462.291 3.253.873.795.583 1.259 1.376 1.392 2.38Zm7.125 8.011c-1.122 0-2.088-.227-2.898-.682a4.663 4.663 0 0 1-1.86-1.946c-.436-.843-.654-1.84-.654-2.99 0-1.122.218-2.107.654-2.954a4.823 4.823 0 0 1 1.839-1.982c.796-.473 1.728-.71 2.798-.71.72 0 1.39.116 2.01.348a4.46 4.46 0 0 1 1.634 1.03c.469.459.833 1.037 1.094 1.733.26.69.39 1.5.39 2.429v.83h-9.211v-1.874h6.363c0-.436-.094-.822-.284-1.158a2.033 2.033 0 0 0-.788-.788 2.252 2.252 0 0 0-1.158-.292c-.459 0-.866.107-1.221.32-.351.208-.625.49-.824.845-.199.35-.301.741-.306 1.172v1.783c0 .54.1 1.006.299 1.399.203.393.49.696.859.909.369.213.807.32 1.314.32.336 0 .644-.048.923-.142a1.85 1.85 0 0 0 1.172-1.122l2.798.184a3.823 3.823 0 0 1-.873 1.761c-.436.498-.999.886-1.691 1.165-.686.275-1.479.412-2.379.412Zm6.982-.213V76.09h2.933v1.904h.114c.198-.677.532-1.188 1.001-1.534a2.631 2.631 0 0 1 1.619-.525 4.55 4.55 0 0 1 .952.106v2.685a3.954 3.954 0 0 0-.59-.114c-.25-.033-.48-.05-.688-.05-.445 0-.843.098-1.194.292-.345.19-.62.454-.823.795a2.296 2.296 0 0 0-.299 1.18V87h-3.025Zm18.686-10.91L154.693 87h-3.409l-3.814-10.91h3.196l2.265 7.806h.114l2.259-7.805h3.203ZM160.055 87V76.09h3.026V87h-3.026Zm1.52-12.315c-.45 0-.836-.15-1.158-.448a1.452 1.452 0 0 1-.476-1.086c0-.417.159-.775.476-1.073a1.63 1.63 0 0 1 1.158-.454c.45 0 .833.151 1.15.454.322.298.483.656.483 1.073 0 .421-.161.783-.483 1.086-.317.299-.7.448-1.15.448Zm8.858 12.528c-1.117 0-2.078-.237-2.883-.71a4.804 4.804 0 0 1-1.847-1.989c-.426-.847-.639-1.823-.639-2.926 0-1.117.215-2.097.646-2.94a4.806 4.806 0 0 1 1.854-1.982c.8-.478 1.752-.717 2.855-.717.952 0 1.785.173 2.5.518a4.173 4.173 0 0 1 1.697 1.456c.417.625.647 1.36.689 2.202h-2.855c-.08-.544-.293-.983-.639-1.314-.341-.336-.788-.504-1.342-.504-.469 0-.879.128-1.229.383-.346.251-.615.618-.81 1.101-.194.483-.291 1.068-.291 1.755 0 .695.095 1.287.284 1.775.194.488.467.86.817 1.115.35.256.76.384 1.229.384.345 0 .656-.071.93-.213.28-.142.509-.349.689-.618.185-.275.305-.604.362-.988h2.855c-.047.834-.274 1.568-.681 2.202a4.123 4.123 0 0 1-1.669 1.477c-.711.355-1.551.533-2.522.533Zm11.781 0c-1.122 0-2.088-.227-2.898-.682a4.663 4.663 0 0 1-1.86-1.946c-.436-.843-.654-1.84-.654-2.99 0-1.122.218-2.107.654-2.954a4.823 4.823 0 0 1 1.839-1.982c.796-.473 1.728-.71 2.798-.71.72 0 1.39.116 2.01.348a4.46 4.46 0 0 1 1.634 1.03c.469.459.833 1.037 1.094 1.733.26.69.39 1.5.39 2.429v.83h-9.211v-1.874h6.363c0-.436-.094-.822-.284-1.158a2.033 2.033 0 0 0-.788-.788 2.252 2.252 0 0 0-1.158-.292c-.459 0-.866.107-1.221.32-.351.208-.625.49-.824.845-.199.35-.301.741-.306 1.172v1.783c0 .54.1 1.006.299 1.399.203.393.49.696.859.909.369.213.807.32 1.314.32.336 0 .644-.048.923-.142a1.85 1.85 0 0 0 1.172-1.122l2.798.184a3.823 3.823 0 0 1-.873 1.761c-.436.498-.999.886-1.691 1.165-.686.275-1.479.412-2.379.412Zm16.058-8.011-2.77.17a1.43 1.43 0 0 0-.305-.639 1.616 1.616 0 0 0-.618-.462 2.097 2.097 0 0 0-.902-.177c-.469 0-.864.1-1.186.298-.322.194-.483.455-.483.781 0 .26.104.48.313.66.208.18.565.325 1.072.434l1.975.398c1.06.218 1.851.568 2.372 1.05.521.484.781 1.118.781 1.904 0 .715-.211 1.343-.632 1.882-.417.54-.99.962-1.719 1.265-.724.298-1.56.447-2.507.447-1.444 0-2.595-.3-3.452-.902-.852-.606-1.352-1.43-1.498-2.472l2.976-.156c.09.44.307.777.653 1.009.346.227.788.34 1.328.34.53 0 .957-.101 1.279-.305.326-.208.492-.476.497-.802a.836.836 0 0 0-.348-.675c-.228-.18-.578-.317-1.051-.412l-1.89-.376c-1.065-.213-1.858-.583-2.379-1.108-.516-.526-.774-1.196-.774-2.01 0-.701.189-1.305.568-1.811.384-.507.921-.898 1.612-1.172.696-.275 1.511-.412 2.443-.412 1.378 0 2.463.291 3.253.873.796.583 1.26 1.376 1.392 2.38ZM207.207 87l-2.969-10.91h3.061l1.691 7.33h.099l1.761-7.33h3.005l1.79 7.288h.092l1.662-7.287h3.054L217.491 87h-3.203l-1.875-6.86h-.135L210.403 87h-3.196Zm14.86 0V76.09h3.025V87h-3.025Zm1.52-12.315c-.45 0-.836-.15-1.158-.448a1.452 1.452 0 0 1-.476-1.086c0-.417.159-.775.476-1.073a1.63 1.63 0 0 1 1.158-.454c.449 0 .833.151 1.15.454.322.298.483.656.483 1.073 0 .421-.161.783-.483 1.086a1.619 1.619 0 0 1-1.15.448Zm9.732 1.406v2.273h-6.57V76.09h6.57Zm-5.079-2.614h3.026v10.17c0 .28.043.498.128.654a.701.701 0 0 0 .355.32c.156.061.336.092.54.092.142 0 .284-.012.426-.035.142-.029.251-.05.327-.064l.475 2.251a8.391 8.391 0 0 1-.639.163 5.113 5.113 0 0 1-1.001.121c-.729.029-1.369-.069-1.918-.291a2.678 2.678 0 0 1-1.271-1.037c-.303-.469-.452-1.06-.448-1.775V73.477Zm10.309 7.216V87h-3.025V72.454h2.94v5.562h.128a3.088 3.088 0 0 1 1.193-1.513c.549-.37 1.238-.554 2.067-.554.757 0 1.418.166 1.981.497a3.312 3.312 0 0 1 1.321 1.413c.318.611.474 1.343.469 2.195V87h-3.025v-6.406c.004-.673-.166-1.196-.512-1.57-.341-.374-.819-.56-1.434-.56-.412 0-.777.087-1.094.262a1.86 1.86 0 0 0-.739.767c-.175.331-.265.731-.27 1.2Zm14.384 6.52c-1.103 0-2.057-.234-2.862-.703a4.816 4.816 0 0 1-1.854-1.975c-.435-.847-.653-1.83-.653-2.947 0-1.127.218-2.112.653-2.954a4.759 4.759 0 0 1 1.854-1.975c.805-.473 1.759-.71 2.862-.71 1.103 0 2.055.237 2.855.71a4.737 4.737 0 0 1 1.861 1.974c.436.843.654 1.828.654 2.955 0 1.118-.218 2.1-.654 2.948a4.793 4.793 0 0 1-1.861 1.974c-.8.469-1.752.703-2.855.703Zm.014-2.344c.502 0 .921-.142 1.258-.426.336-.289.589-.682.759-1.179.176-.497.263-1.063.263-1.697 0-.635-.087-1.2-.263-1.698-.17-.497-.423-.89-.759-1.179-.337-.288-.756-.433-1.258-.433-.506 0-.932.144-1.278.433-.341.29-.599.682-.774 1.18-.171.496-.256 1.062-.256 1.697 0 .634.085 1.2.256 1.697.175.497.433.89.774 1.18.346.283.772.425 1.278.425Zm14.319-2.514v-6.264h3.025V87h-2.905v-1.981h-.113a3.22 3.22 0 0 1-1.229 1.54c-.568.389-1.262.583-2.081.583-.729 0-1.371-.166-1.925-.497a3.413 3.413 0 0 1-1.299-1.413c-.308-.611-.464-1.343-.469-2.195V76.09h3.025v6.406c.005.644.178 1.153.519 1.527.341.374.798.561 1.371.561.364 0 .705-.083 1.022-.248.318-.17.573-.422.767-.753.199-.332.296-.741.292-1.229Zm11.248-6.264v2.273h-6.57V76.09h6.57Zm-5.078-2.614h3.025v10.17c0 .28.043.498.128.654a.705.705 0 0 0 .355.32c.156.061.336.092.54.092.142 0 .284-.012.426-.035.142-.029.251-.05.327-.064l.476 2.251a8.65 8.65 0 0 1-.639.163 5.134 5.134 0 0 1-1.002.121c-.729.029-1.368-.069-1.918-.291a2.678 2.678 0 0 1-1.271-1.037c-.303-.469-.452-1.06-.447-1.775V73.477ZM285.114 87V76.09h2.933v1.904h.114c.198-.677.532-1.188 1.001-1.534a2.631 2.631 0 0 1 1.619-.525 4.55 4.55 0 0 1 .952.106v2.685a3.954 3.954 0 0 0-.59-.114c-.25-.033-.48-.05-.688-.05-.446 0-.843.098-1.194.292-.345.19-.62.454-.823.795a2.296 2.296 0 0 0-.299 1.18V87h-3.025Zm12.647.213c-1.122 0-2.088-.227-2.898-.682a4.671 4.671 0 0 1-1.861-1.946c-.435-.843-.653-1.84-.653-2.99 0-1.122.218-2.107.653-2.954a4.832 4.832 0 0 1 1.84-1.982c.795-.473 1.728-.71 2.798-.71.72 0 1.39.116 2.01.348a4.46 4.46 0 0 1 1.634 1.03c.468.459.833 1.037 1.093 1.733.261.69.391 1.5.391 2.429v.83h-9.212v-1.874h6.364c0-.436-.095-.822-.284-1.158a2.033 2.033 0 0 0-.788-.788 2.252 2.252 0 0 0-1.158-.292c-.459 0-.866.107-1.222.32-.35.208-.625.49-.823.845-.199.35-.301.741-.306 1.172v1.783c0 .54.1 1.006.298 1.399.204.393.49.696.86.909.369.213.807.32 1.314.32.336 0 .644-.048.923-.142a1.85 1.85 0 0 0 1.172-1.122l2.798.184a3.823 3.823 0 0 1-.873 1.761c-.436.498-.999.886-1.691 1.165-.686.275-1.479.412-2.379.412Zm10.092-.007c-.696 0-1.316-.12-1.86-.362a2.993 2.993 0 0 1-1.293-1.087c-.313-.483-.469-1.084-.469-1.804 0-.606.111-1.115.334-1.527.223-.412.526-.743.909-.994.384-.251.819-.44 1.307-.568a9.939 9.939 0 0 1 1.548-.27 39.038 39.038 0 0 0 1.534-.185c.389-.062.67-.151.845-.27.176-.118.263-.293.263-.525v-.043c0-.45-.142-.798-.426-1.044-.279-.246-.677-.37-1.193-.37-.545 0-.978.121-1.3.363a1.665 1.665 0 0 0-.639.895l-2.798-.228a3.798 3.798 0 0 1 .838-1.718c.416-.488.954-.862 1.612-1.122.663-.266 1.43-.398 2.301-.398.606 0 1.186.07 1.74.213a4.555 4.555 0 0 1 1.485.66c.435.299.778.682 1.029 1.151.251.464.377 1.02.377 1.669V87h-2.87v-1.513h-.085c-.175.341-.409.642-.703.902a3.247 3.247 0 0 1-1.058.604c-.412.142-.888.213-1.428.213Zm.867-2.088c.445 0 .838-.088 1.179-.263.341-.18.608-.421.802-.724a1.87 1.87 0 0 0 .292-1.03v-1.158a1.624 1.624 0 0 1-.391.17 7.053 7.053 0 0 1-.547.136c-.204.038-.407.073-.611.106l-.554.078a3.741 3.741 0 0 0-.93.249 1.49 1.49 0 0 0-.618.462c-.147.189-.22.426-.22.71 0 .412.149.727.447.944.303.213.687.32 1.151.32Zm16.701-5.916-2.77.17a1.43 1.43 0 0 0-.305-.639 1.632 1.632 0 0 0-.618-.462 2.1 2.1 0 0 0-.902-.177c-.469 0-.864.1-1.186.298-.322.194-.483.455-.483.781 0 .26.104.48.312.66.208.18.566.325 1.073.434l1.974.398c1.061.218 1.851.568 2.372 1.05.521.484.781 1.118.781 1.904 0 .715-.21 1.343-.632 1.882-.416.54-.989.962-1.718 1.265-.725.298-1.561.447-2.508.447-1.444 0-2.594-.3-3.451-.902-.853-.606-1.352-1.43-1.499-2.472l2.976-.156c.09.44.308.777.653 1.009.346.227.789.34 1.329.34.53 0 .956-.101 1.278-.305.327-.208.492-.476.497-.802a.836.836 0 0 0-.348-.675c-.227-.18-.578-.317-1.051-.412l-1.889-.376c-1.066-.213-1.859-.583-2.38-1.108-.516-.526-.774-1.196-.774-2.01 0-.701.19-1.305.569-1.811.383-.507.92-.898 1.612-1.172.696-.275 1.51-.412 2.443-.412 1.378 0 2.462.291 3.253.873.795.583 1.259 1.376 1.392 2.38Zm7.083 8.011c-1.104 0-2.058-.234-2.863-.703a4.807 4.807 0 0 1-1.853-1.975c-.436-.847-.654-1.83-.654-2.947 0-1.127.218-2.112.654-2.954a4.75 4.75 0 0 1 1.853-1.975c.805-.473 1.759-.71 2.863-.71 1.103 0 2.054.237 2.855.71a4.735 4.735 0 0 1 1.86 1.974c.436.843.654 1.828.654 2.955 0 1.118-.218 2.1-.654 2.948a4.79 4.79 0 0 1-1.86 1.974c-.801.469-1.752.703-2.855.703Zm.014-2.344c.502 0 .921-.142 1.257-.426.336-.289.589-.682.76-1.179.175-.497.263-1.063.263-1.697 0-.635-.088-1.2-.263-1.698-.171-.497-.424-.89-.76-1.179-.336-.288-.755-.433-1.257-.433-.507 0-.933.144-1.279.433-.341.29-.599.682-.774 1.18-.17.496-.255 1.062-.255 1.697 0 .634.085 1.2.255 1.697.175.497.433.89.774 1.18.346.283.772.425 1.279.425Zm10.348-4.176V87h-3.026V76.09h2.884v1.926h.128a3.042 3.042 0 0 1 1.214-1.506c.568-.374 1.257-.561 2.067-.561.757 0 1.418.166 1.981.497a3.373 3.373 0 0 1 1.314 1.42c.313.611.469 1.34.469 2.188V87h-3.026v-6.406c.005-.668-.165-1.189-.511-1.563-.346-.379-.821-.568-1.427-.568-.408 0-.768.088-1.08.263-.308.175-.549.43-.724.767-.171.331-.258.731-.263 1.2Z"/><defs><radialGradient id="a" cx="0" cy="0" r="1" gradientTransform="matrix(.49996 -85.00003 558.96033 3.2877 205.5 80)" gradientUnits="userSpaceOnUse"><stop stop-color="#4AD5DE"/><stop offset="1" stop-color="#677EF9"/></radialGradient></defs></svg>