<svg xmlns="http://www.w3.org/2000/svg" width="411" height="160" fill="none">
    <path fill="url(#a)" d="M0 0h411v160H0z"/>
    <path fill="#012A35"
          d="M103.333 67.5h6.486l13.744 21.976V67.501h5.987v31.138h-6.441L109.32 76.71v21.93h-5.987V67.501ZM156.311 98.64h-5.579V95.16c-1.27 2.448-3.855 3.826-7.12 3.826-5.171 0-8.529-3.648-8.529-8.898V76.218h5.579v12.724c0 3.07 1.906 5.204 4.763 5.204 3.13 0 5.307-2.402 5.307-5.694V76.218h5.579v22.421ZM175.724 98.285l-5.352-7.474-5.353 7.474h-5.943l8.257-11.7-7.621-10.722h6.078l4.582 6.452 4.534-6.452h6.125l-7.667 10.722 8.256 11.7h-5.896ZM192.96 69.457v6.76h6.351V80.8h-6.351v11.13c0 .374.151.733.421.997.269.265.634.413 1.016.414h4.914v5.29h-3.675c-4.99 0-8.255-2.849-8.255-7.827v-10h-4.49v-4.587h2.817c1.314 0 2.079-.767 2.079-2.037v-4.724h5.173ZM213.374 91.587V67.5h5.985v22.242c0 6.006-2.948 8.897-7.937 8.897h-6.967V93.35h7.122c.476 0 .934-.185 1.271-.516.337-.33.526-.78.526-1.247ZM222.945 88.185h5.763c.319 3.478 2.678 5.693 6.488 5.693 3.402 0 5.763-1.332 5.763-4.091 0-6.674-17.067-2.048-17.067-13.97.004-5.115 4.495-8.67 10.947-8.67 6.714 0 11.249 3.781 11.526 9.61h-5.732c-.27-2.714-2.438-4.537-5.805-4.537-3.13 0-5.08 1.424-5.08 3.602 0 6.895 17.289 1.739 17.289 13.88 0 5.783-4.855 9.298-11.839 9.298-7.212 0-11.929-4.272-12.246-10.811"/>
    <path fill="#80EEC0" fill-rule="evenodd"
          d="M56.751 61.261c-1.674-2.88-5.86-2.88-7.535 0l-18.25 31.38c-1.675 2.88.418 6.478 3.767 6.478H48.98c-1.43-1.25-1.96-3.414-.878-5.27l13.822-23.693-5.173-8.895Z"
          clip-rule="evenodd"/>
    <path fill="#00DC82"
          d="M68.315 68.144c1.386-2.356 4.85-2.356 6.237 0L89.654 93.82c1.386 2.356-.346 5.3-3.118 5.3H56.33c-2.772 0-4.505-2.944-3.119-5.3l15.104-25.675Z"/>
    <path stroke="#012A35" stroke-linecap="round" stroke-width="4" d="M274 79.5h20M284 89.5v-20"/>
    <rect width="60" height="60" x="320" y="49.5" fill="#F97316" rx="8"/>
    <path stroke="#fff" stroke-linecap="round" stroke-linejoin="round" stroke-width="6"
          d="M351.875 98.25v-1.875a18.748 18.748 0 0 0-18.75-18.75h-1.875m0-16.875h1.875c19.675 0 35.625 15.95 35.625 35.625v1.875M335 96.375a1.877 1.877 0 0 1-1.875 1.875 1.876 1.876 0 0 1-1.326-3.2A1.876 1.876 0 0 1 335 96.374v0Z"/>
    <defs>
        <linearGradient id="a" x1="0" x2="411" y1="80" y2="80" gradientUnits="userSpaceOnUse">
            <stop stop-color="#EAFFF2"/>
            <stop offset="1" stop-color="#FFF1E1"/>
        </linearGradient>
    </defs>
</svg>