<svg width="411" height="160" viewBox="0 0 411 160" fill="none" xmlns="http://www.w3.org/2000/svg">
<rect width="411" height="160" fill="url(#paint0_linear_201_35)"/>
<path d="M147.547 89.1591C146.036 89.1591 144.692 88.9531 143.513 88.5412C142.334 88.134 141.337 87.5374 140.523 86.7514C139.708 85.9607 139.088 84.9972 138.662 83.8608C138.236 82.7244 138.023 81.4318 138.023 79.983C138.023 78.553 138.236 77.2557 138.662 76.0909C139.093 74.9261 139.72 73.9271 140.544 73.0938C141.368 72.2557 142.374 71.6117 143.562 71.1619C144.756 70.7121 146.115 70.4872 147.639 70.4872C149.05 70.4872 150.31 70.6932 151.418 71.1051C152.53 71.517 153.473 72.1042 154.244 72.8665C155.021 73.6241 155.61 74.526 156.013 75.5724C156.42 76.6141 156.621 77.767 156.616 79.0312C156.621 79.9025 156.545 80.7027 156.389 81.4318C156.233 82.161 155.987 82.7978 155.651 83.3423C155.319 83.8821 154.884 84.3106 154.344 84.6278C153.804 84.9403 153.151 85.1179 152.384 85.1605C151.834 85.2031 151.389 85.1629 151.048 85.0398C150.707 84.9167 150.447 84.7344 150.267 84.4929C150.092 84.2467 149.978 83.9602 149.926 83.6335H149.841C149.727 83.9176 149.505 84.1757 149.173 84.4077C148.842 84.6349 148.437 84.8125 147.959 84.9403C147.485 85.0634 146.981 85.1084 146.446 85.0753C145.887 85.0421 145.357 84.9119 144.855 84.6847C144.358 84.4574 143.915 84.1283 143.527 83.6974C143.143 83.2666 142.84 82.7339 142.618 82.0994C142.4 81.465 142.289 80.7311 142.284 79.8977C142.289 79.0739 142.405 78.3565 142.632 77.7457C142.864 77.1349 143.17 76.6212 143.548 76.2045C143.932 75.7879 144.358 75.4612 144.827 75.2244C145.295 74.9877 145.767 74.8362 146.24 74.7699C146.775 74.6894 147.282 74.6894 147.76 74.7699C148.238 74.8504 148.641 74.9806 148.967 75.1605C149.299 75.3404 149.505 75.5346 149.585 75.7429H149.685V74.9474H151.908V81.8793C151.912 82.206 151.986 82.4593 152.128 82.6392C152.27 82.8191 152.462 82.9091 152.703 82.9091C153.03 82.9091 153.302 82.7647 153.52 82.4759C153.742 82.187 153.908 81.7443 154.017 81.1477C154.131 80.5511 154.188 79.7912 154.188 78.8679C154.188 77.9777 154.069 77.1965 153.832 76.5241C153.6 75.8471 153.274 75.2718 152.852 74.7983C152.436 74.3201 151.95 73.9318 151.396 73.6335C150.842 73.3352 150.241 73.1174 149.592 72.9801C148.948 72.8428 148.286 72.7741 147.604 72.7741C146.425 72.7741 145.395 72.9541 144.514 73.3139C143.634 73.669 142.9 74.1686 142.312 74.8125C141.725 75.4564 141.285 76.2116 140.991 77.0781C140.703 77.9399 140.556 78.8797 140.551 79.8977C140.556 81.0199 140.712 82.0142 141.02 82.8807C141.332 83.7424 141.792 84.4669 142.398 85.054C143.004 85.6411 143.752 86.0862 144.642 86.3892C145.532 86.6922 146.555 86.8438 147.71 86.8438C148.255 86.8438 148.787 86.8059 149.308 86.7301C149.829 86.6496 150.3 86.5549 150.722 86.446C151.143 86.3324 151.482 86.2235 151.737 86.1193L152.44 88.179C152.142 88.3494 151.737 88.508 151.226 88.6548C150.719 88.8063 150.146 88.9271 149.507 89.017C148.873 89.1117 148.219 89.1591 147.547 89.1591ZM147.22 82.7386C147.798 82.7386 148.257 82.6274 148.598 82.4048C148.944 82.1823 149.19 81.8532 149.337 81.4176C149.488 80.9773 149.559 80.4351 149.55 79.7912C149.545 79.223 149.472 78.7424 149.33 78.3494C149.192 77.9517 148.953 77.651 148.612 77.4474C148.276 77.2391 147.807 77.1349 147.206 77.1349C146.68 77.1349 146.233 77.2462 145.864 77.4688C145.499 77.6913 145.22 78.0038 145.026 78.4062C144.836 78.804 144.739 79.2727 144.734 79.8125C144.739 80.3144 144.82 80.7902 144.976 81.2401C145.132 81.6851 145.39 82.0473 145.75 82.3267C146.11 82.6013 146.6 82.7386 147.22 82.7386ZM158.87 72.4545H162.662L166.668 82.2273H166.838L170.844 72.4545H174.637V87H171.654V77.5327H171.533L167.769 86.929H165.738L161.973 77.4972H161.853V87H158.87V72.4545ZM180.224 87.206C179.528 87.206 178.908 87.0852 178.364 86.8438C177.819 86.5975 177.388 86.2353 177.071 85.7571C176.759 85.2741 176.602 84.6728 176.602 83.9531C176.602 83.3471 176.714 82.8381 176.936 82.4261C177.159 82.0142 177.462 81.6828 177.845 81.4318C178.229 81.1809 178.664 80.9915 179.152 80.8636C179.644 80.7358 180.161 80.6458 180.7 80.5938C181.335 80.5275 181.846 80.4659 182.234 80.4091C182.623 80.3475 182.904 80.2576 183.08 80.1392C183.255 80.0208 183.342 79.8456 183.342 79.6136V79.571C183.342 79.1212 183.2 78.7732 182.916 78.527C182.637 78.2808 182.239 78.1577 181.723 78.1577C181.179 78.1577 180.745 78.2784 180.423 78.5199C180.101 78.7566 179.888 79.0549 179.784 79.4148L176.986 79.1875C177.128 78.5246 177.407 77.9517 177.824 77.4688C178.241 76.9811 178.778 76.607 179.436 76.3466C180.099 76.0814 180.866 75.9489 181.737 75.9489C182.343 75.9489 182.923 76.0199 183.477 76.1619C184.036 76.304 184.531 76.5241 184.962 76.8224C185.397 77.1207 185.741 77.5043 185.991 77.973C186.242 78.437 186.368 78.9934 186.368 79.642V87H183.499V85.4872H183.413C183.238 85.8281 183.004 86.1288 182.71 86.3892C182.417 86.6449 182.064 86.8461 181.652 86.9929C181.24 87.1349 180.764 87.206 180.224 87.206ZM181.091 85.1179C181.536 85.1179 181.929 85.0303 182.27 84.8551C182.611 84.6752 182.878 84.4337 183.072 84.1307C183.267 83.8277 183.364 83.4844 183.364 83.1009V81.9432C183.269 82.0047 183.139 82.0616 182.973 82.1136C182.812 82.161 182.63 82.206 182.426 82.2486C182.223 82.2865 182.019 82.322 181.815 82.3551C181.612 82.3835 181.427 82.4096 181.261 82.4332C180.906 82.4853 180.596 82.5682 180.331 82.6818C180.066 82.7955 179.86 82.9493 179.713 83.1435C179.566 83.3329 179.493 83.5696 179.493 83.8537C179.493 84.2656 179.642 84.5805 179.94 84.7983C180.243 85.0114 180.627 85.1179 181.091 85.1179ZM191.741 80.6932V87H188.715V76.0909H191.599V78.0156H191.727C191.968 77.3812 192.373 76.8793 192.941 76.5099C193.509 76.1359 194.198 75.9489 195.008 75.9489C195.765 75.9489 196.426 76.1146 196.989 76.446C197.553 76.7775 197.991 77.2509 198.303 77.8665C198.616 78.4773 198.772 79.2064 198.772 80.054V87H195.746V80.5938C195.751 79.9261 195.581 79.4053 195.235 79.0312C194.889 78.6525 194.414 78.4631 193.808 78.4631C193.4 78.4631 193.04 78.5507 192.728 78.7259C192.42 78.901 192.179 79.1567 192.004 79.4929C191.833 79.8243 191.746 80.2244 191.741 80.6932ZM202.634 91.0909C202.25 91.0909 201.891 91.0601 201.554 90.9986C201.223 90.9418 200.948 90.8684 200.73 90.7784L201.412 88.5199C201.767 88.6288 202.087 88.688 202.371 88.6974C202.66 88.7069 202.908 88.6406 203.117 88.4986C203.33 88.3565 203.503 88.1151 203.635 87.7741L203.813 87.3125L199.9 76.0909H203.081L205.34 84.1023H205.453L207.733 76.0909H210.936L206.696 88.179C206.493 88.7661 206.216 89.2775 205.865 89.7131C205.52 90.1534 205.082 90.492 204.551 90.7287C204.021 90.9702 203.382 91.0909 202.634 91.0909ZM211.304 74.9901V72.4545H223.25V74.9901H218.797V87H215.757V74.9901H211.304ZM228.507 87.2131C227.404 87.2131 226.45 86.9787 225.645 86.5099C224.845 86.0365 224.227 85.3783 223.792 84.5355C223.356 83.688 223.138 82.7055 223.138 81.5881C223.138 80.4612 223.356 79.4763 223.792 78.6335C224.227 77.786 224.845 77.1278 225.645 76.6591C226.45 76.1856 227.404 75.9489 228.507 75.9489C229.611 75.9489 230.562 76.1856 231.363 76.6591C232.167 77.1278 232.788 77.786 233.223 78.6335C233.659 79.4763 233.877 80.4612 233.877 81.5881C233.877 82.7055 233.659 83.688 233.223 84.5355C232.788 85.3783 232.167 86.0365 231.363 86.5099C230.562 86.9787 229.611 87.2131 228.507 87.2131ZM228.522 84.8693C229.024 84.8693 229.443 84.7273 229.779 84.4432C230.115 84.1544 230.368 83.7614 230.539 83.2642C230.714 82.767 230.801 82.2012 230.801 81.5668C230.801 80.9323 230.714 80.3665 230.539 79.8693C230.368 79.3722 230.115 78.9792 229.779 78.6903C229.443 78.4015 229.024 78.2571 228.522 78.2571C228.015 78.2571 227.589 78.4015 227.243 78.6903C226.902 78.9792 226.644 79.3722 226.469 79.8693C226.299 80.3665 226.213 80.9323 226.213 81.5668C226.213 82.2012 226.299 82.767 226.469 83.2642C226.644 83.7614 226.902 84.1544 227.243 84.4432C227.589 84.7273 228.015 84.8693 228.522 84.8693ZM249.267 79.7273C249.267 81.3134 248.967 82.6629 248.365 83.7756C247.769 84.8883 246.954 85.7382 245.922 86.3253C244.895 86.9077 243.739 87.1989 242.456 87.1989C241.164 87.1989 240.004 86.9053 238.976 86.3182C237.949 85.7311 237.137 84.8812 236.54 83.7685C235.944 82.6558 235.645 81.3087 235.645 79.7273C235.645 78.1411 235.944 76.7917 236.54 75.679C237.137 74.5663 237.949 73.7187 238.976 73.1364C240.004 72.5492 241.164 72.2557 242.456 72.2557C243.739 72.2557 244.895 72.5492 245.922 73.1364C246.954 73.7187 247.769 74.5663 248.365 75.679C248.967 76.7917 249.267 78.1411 249.267 79.7273ZM246.15 79.7273C246.15 78.6998 245.996 77.8333 245.688 77.1278C245.385 76.4223 244.956 75.8873 244.402 75.5227C243.848 75.1581 243.2 74.9759 242.456 74.9759C241.713 74.9759 241.064 75.1581 240.51 75.5227C239.956 75.8873 239.525 76.4223 239.218 77.1278C238.915 77.8333 238.763 78.6998 238.763 79.7273C238.763 80.7547 238.915 81.6212 239.218 82.3267C239.525 83.0322 239.956 83.5672 240.51 83.9318C241.064 84.2964 241.713 84.4787 242.456 84.4787C243.2 84.4787 243.848 84.2964 244.402 83.9318C244.956 83.5672 245.385 83.0322 245.688 82.3267C245.996 81.6212 246.15 80.7547 246.15 79.7273ZM254.514 80.6932V87H251.489V76.0909H254.372V78.0156H254.5C254.741 77.3812 255.146 76.8793 255.714 76.5099C256.283 76.1359 256.972 75.9489 257.781 75.9489C258.539 75.9489 259.199 76.1146 259.763 76.446C260.326 76.7775 260.764 77.2509 261.077 77.8665C261.389 78.4773 261.545 79.2064 261.545 80.054V87H258.52V80.5938C258.525 79.9261 258.354 79.4053 258.009 79.0312C257.663 78.6525 257.187 78.4631 256.581 78.4631C256.174 78.4631 255.814 78.5507 255.501 78.7259C255.194 78.901 254.952 79.1567 254.777 79.4929C254.607 79.8243 254.519 80.2244 254.514 80.6932ZM268.902 87.2131C267.779 87.2131 266.814 86.9858 266.004 86.5312C265.199 86.072 264.579 85.4233 264.143 84.5852C263.708 83.7424 263.49 82.7457 263.49 81.5952C263.49 80.473 263.708 79.4882 264.143 78.6406C264.579 77.7931 265.192 77.1326 265.983 76.6591C266.778 76.1856 267.711 75.9489 268.781 75.9489C269.501 75.9489 270.171 76.0649 270.791 76.2969C271.416 76.5241 271.96 76.8674 272.424 77.3267C272.893 77.786 273.258 78.3636 273.518 79.0597C273.779 79.7509 273.909 80.5606 273.909 81.4886V82.3196H264.697V80.4446H271.061C271.061 80.009 270.966 79.6231 270.777 79.2869C270.587 78.9508 270.324 78.688 269.988 78.4986C269.657 78.3045 269.271 78.2074 268.831 78.2074C268.371 78.2074 267.964 78.3139 267.609 78.527C267.259 78.7353 266.984 79.017 266.785 79.3722C266.586 79.7225 266.484 80.1132 266.48 80.544V82.3267C266.48 82.8665 266.579 83.3329 266.778 83.7259C266.982 84.1188 267.268 84.4219 267.637 84.6349C268.007 84.848 268.445 84.9545 268.951 84.9545C269.288 84.9545 269.595 84.9072 269.875 84.8125C270.154 84.7178 270.393 84.5758 270.592 84.3864C270.791 84.197 270.942 83.965 271.047 83.6903L273.845 83.875C273.703 84.5473 273.412 85.1345 272.971 85.6364C272.536 86.1335 271.972 86.5218 271.281 86.8011C270.594 87.0758 269.801 87.2131 268.902 87.2131Z" fill="#2E2E2E" fill-opacity="0.9"/>
<path d="M137 80.4517H274.676V81.8153H137V80.4517Z" fill="#2E2E2E" fill-opacity="0.9"/>
<defs>
<linearGradient id="paint0_linear_201_35" x1="0" y1="80" x2="411" y2="80" gradientUnits="userSpaceOnUse">
<stop stop-color="#4ADE80"/>
<stop offset="1" stop-color="#67E8F9"/>
</linearGradient>
</defs>
</svg>
